<svg width="20" height="20" viewBox="0 0 20 20" fill="none" xmlns="http://www.w3.org/2000/svg">
<rect width="20" height="20" rx="2" fill="#B2CCFF"/>
<path d="M4.21436 4.2143C4.21436 3.50422 4.78999 2.92859 5.50007 2.92859H10.9691C11.4806 2.92859 11.9711 3.13178 12.3328 3.49345L15.2209 6.38158C15.5826 6.74326 15.7858 7.2338 15.7858 7.74529V15.7857C15.7858 16.4958 15.2102 17.0714 14.5001 17.0714H5.50007C4.78999 17.0714 4.21436 16.4958 4.21436 15.7857V4.2143Z" fill="#3663F2"/>
<path d="M11.319 2.9877C11.7155 3.05378 12.0814 3.2421 12.3657 3.52632L15.188 6.34871C15.4723 6.63294 15.6606 6.99887 15.7267 7.39536L15.7858 7.75002L15.6841 7.44508C15.5529 7.05133 15.1844 6.78573 14.7693 6.78573H12.8929C12.3604 6.78573 11.9286 6.35401 11.9286 5.82145V3.94504C11.9286 3.52998 11.663 3.16149 11.2693 3.03023L10.9644 2.92859L11.319 2.9877Z" fill="white"/>
<path fill-rule="evenodd" clip-rule="evenodd" d="M8.55371 9.99998C8.55371 9.7337 8.76957 9.51784 9.03585 9.51784L13.2144 9.51784C13.4807 9.51784 13.6966 9.7337 13.6966 9.99998C13.6966 10.2663 13.4807 10.4821 13.2144 10.4821L9.03585 10.4821C8.76957 10.4821 8.55371 10.2663 8.55371 9.99998Z" fill="#B2CCFF"/>
<path fill-rule="evenodd" clip-rule="evenodd" d="M6.30371 12.25C6.30371 11.9837 6.51957 11.7678 6.78585 11.7678H13.2144C13.4807 11.7678 13.6966 11.9837 13.6966 12.25C13.6966 12.5163 13.4807 12.7321 13.2144 12.7321H6.78585C6.51957 12.7321 6.30371 12.5163 6.30371 12.25Z" fill="#B2CCFF"/>
<path fill-rule="evenodd" clip-rule="evenodd" d="M6.30371 14.5C6.30371 14.2337 6.51957 14.0178 6.78585 14.0178H13.2144C13.4807 14.0178 13.6966 14.2337 13.6966 14.5C13.6966 14.7663 13.4807 14.9821 13.2144 14.9821H6.78585C6.51957 14.9821 6.30371 14.7663 6.30371 14.5Z" fill="#B2CCFF"/>
</svg>
