<svg width="24" height="20" viewBox="0 0 24 20" fill="none" xmlns="http://www.w3.org/2000/svg">
<path d="M0.5 6.2722V15.7C0.5 16.7078 0.900356 17.6744 1.61299 18.387C2.32563 19.0996 3.29218 19.5 4.3 19.5H19.5C20.5078 19.5 21.4744 19.0996 22.187 18.387C22.8996 17.6744 23.3 16.7078 23.3 15.7V4.3C23.3 3.29218 22.8996 2.32563 22.187 1.61299C21.4744 0.900356 20.5078 0.5 19.5 0.5H4.3C3.29218 0.5 2.32563 0.900356 1.61299 1.61299C0.900356 2.32563 0.5 3.29218 0.5 4.3V6.2722ZM4.3 2.4H19.5C20.0039 2.4 20.4872 2.60018 20.8435 2.9565C21.1998 3.31282 21.4 3.79609 21.4 4.3V5.706L11.9 10.8208L2.4 5.706V4.3C2.4 3.79609 2.60018 3.31282 2.9565 2.9565C3.31282 2.60018 3.79609 2.4 4.3 2.4V2.4ZM2.4 7.8644L11.4497 12.736C11.5881 12.8105 11.7428 12.8495 11.9 12.8495C12.0572 12.8495 12.2119 12.8105 12.3503 12.736L21.4 7.8644V15.7C21.4 16.2039 21.1998 16.6872 20.8435 17.0435C20.4872 17.3998 20.0039 17.6 19.5 17.6H4.3C3.79609 17.6 3.31282 17.3998 2.9565 17.0435C2.60018 16.6872 2.4 16.2039 2.4 15.7V7.8644Z" fill="#394C66"/>
</svg>
